<?xml version="1.0" encoding="UTF-8"?><svg xmlns="http://www.w3.org/2000/svg" xmlns:xlink="http://www.w3.org/1999/xlink" contentScriptType="text/ecmascript" width="375" zoomAndPan="magnify" contentStyleType="text/css" viewBox="0 0 375 374.999991" height="374.999991" preserveAspectRatio="xMidYMid meet" version="1.0"><defs><clipPath id="clip-0"><path d="M 86 22.929688 L 192 22.929688 L 192 105 L 86 105 Z M 86 22.929688 " clip-rule="nonzero"/></clipPath><clipPath id="clip-1"><path d="M 187 293 L 219 293 L 219 352.179688 L 187 352.179688 Z M 187 293 " clip-rule="nonzero"/></clipPath><clipPath id="clip-2"><path d="M 238 198 L 299.636719 198 L 299.636719 236 L 238 236 Z M 238 198 " clip-rule="nonzero"/></clipPath></defs><g clip-path="url(#clip-0)"><path fill="rgb(100%, 87.059021%, 34.899902%)" d="M 88.953125 104.386719 C 89.511719 104.636719 90.097656 104.757812 90.675781 104.757812 C 92.253906 104.757812 93.773438 103.855469 94.464844 102.320312 C 113.511719 60.503906 151.589844 31.300781 187.070312 31.300781 C 189.371094 31.300781 191.234375 29.441406 191.234375 27.140625 C 191.234375 24.839844 189.371094 22.976562 187.070312 22.976562 L 187.066406 22.976562 C 148.433594 22.976562 107.238281 54.183594 86.890625 98.863281 C 85.9375 100.957031 86.863281 103.429688 88.953125 104.386719 " fill-opacity="1" fill-rule="nonzero"/></g><path fill="rgb(100%, 87.059021%, 34.899902%)" d="M 228.121094 43.773438 C 255.359375 51.128906 270.429688 91.492188 270.78125 125.734375 C 270.8125 128.449219 271.96875 130.703125 274.046875 132.074219 C 275.617188 133.109375 277.527344 133.480469 279.472656 133.480469 C 283.335938 133.480469 287.28125 132.015625 288.796875 131.382812 C 290.917969 130.507812 291.917969 128.074219 291.046875 125.953125 C 290.160156 123.828125 287.734375 122.820312 285.609375 123.6875 C 283.371094 124.613281 280.484375 125.238281 279.105469 125.171875 C 278.578125 87.046875 261.683594 44.207031 230.285156 35.738281 C 228.066406 35.140625 225.78125 36.453125 225.183594 38.671875 C 224.585938 40.890625 225.894531 43.179688 228.121094 43.773438 " fill-opacity="1" fill-rule="nonzero"/><path fill="rgb(100%, 87.059021%, 34.899902%)" d="M 149.902344 246.863281 C 134.832031 222.199219 119.550781 192.207031 129.152344 148.324219 C 129.652344 146.074219 128.222656 143.855469 125.980469 143.367188 C 123.730469 142.871094 121.515625 144.300781 121.019531 146.542969 C 110.757812 193.445312 126.882812 225.15625 142.800781 251.203125 C 152.238281 266.644531 142.960938 285.691406 115.25 307.839844 C 113.453125 309.277344 113.160156 311.894531 114.59375 313.6875 C 115.414062 314.71875 116.632812 315.253906 117.847656 315.253906 C 118.757812 315.253906 119.675781 314.957031 120.445312 314.34375 C 159.710938 282.972656 158.136719 260.332031 149.902344 246.863281 " fill-opacity="1" fill-rule="nonzero"/><path fill="rgb(100%, 87.059021%, 34.899902%)" d="M 160.5 233.390625 C 159.269531 231.050781 158.046875 228.828125 156.878906 226.671875 C 147.15625 208.832031 140.734375 197.046875 144.308594 166.820312 C 148.820312 128.632812 166.035156 107.816406 179.410156 101.597656 C 185.65625 98.691406 191.421875 98.625 195.644531 101.40625 C 199.8125 104.148438 202.210938 108.128906 202.78125 113.238281 C 204.105469 125.183594 195.667969 141.90625 180.191406 157.960938 C 171.878906 166.578125 167.863281 178.429688 168.863281 191.308594 C 169.953125 205.242188 176.949219 219.019531 186.6875 226.398438 C 188.523438 227.785156 191.136719 227.425781 192.519531 225.59375 C 193.910156 223.757812 193.542969 221.144531 191.714844 219.761719 C 183.785156 213.75 178.078125 202.332031 177.164062 190.660156 C 176.582031 183.253906 177.683594 172.5625 186.191406 163.742188 C 203.613281 145.652344 212.675781 126.910156 211.058594 112.316406 C 210.210938 104.738281 206.460938 98.5625 200.222656 94.449219 C 193.496094 90.019531 184.855469 89.875 175.898438 94.046875 C 159.847656 101.515625 140.945312 124.300781 136.039062 165.84375 C 132.15625 198.707031 139.835938 212.808594 149.566406 230.652344 C 150.730469 232.785156 151.921875 234.980469 153.144531 237.285156 C 164.238281 258.25 168.886719 282.507812 128.148438 317.78125 C 126.40625 319.289062 126.21875 321.917969 127.726562 323.660156 C 128.542969 324.609375 129.707031 325.101562 130.875 325.101562 C 131.835938 325.101562 132.8125 324.765625 133.59375 324.085938 C 178.863281 284.890625 172.597656 256.238281 160.5 233.390625 " fill-opacity="1" fill-rule="nonzero"/><path fill="rgb(100%, 87.059021%, 34.899902%)" d="M 214.726562 218.203125 C 212.238281 215.992188 209.886719 213.90625 207.761719 211.929688 C 197.191406 202.121094 192.105469 193.441406 192.222656 185.390625 C 192.328125 177.050781 198.058594 168.1875 210.226562 157.503906 C 221.773438 147.375 228.933594 132.386719 229.394531 117.417969 C 229.824219 103.25 224.460938 90.210938 213.878906 79.707031 C 207.3125 73.191406 199.574219 70.390625 190.867188 71.386719 C 160.546875 74.863281 128.691406 125.035156 127.347656 127.175781 C 126.121094 129.117188 126.707031 131.6875 128.65625 132.914062 C 130.601562 134.144531 133.167969 133.550781 134.398438 131.609375 C 134.707031 131.121094 165.457031 82.675781 191.820312 79.667969 C 197.972656 78.953125 203.261719 80.90625 208.007812 85.621094 C 216.914062 94.460938 221.429688 105.363281 221.070312 117.160156 C 220.683594 129.867188 214.574219 142.609375 204.738281 151.242188 C 190.480469 163.765625 184.042969 174.261719 183.890625 185.273438 C 183.746094 195.816406 189.703125 206.535156 202.097656 218.03125 C 204.269531 220.046875 206.660156 222.175781 209.199219 224.433594 C 228.804688 241.839844 255.652344 265.675781 256.824219 305.0625 C 256.898438 307.3125 258.746094 309.101562 260.992188 309.101562 L 261.113281 309.101562 C 263.410156 309.03125 265.222656 307.109375 265.15625 304.816406 C 263.867188 261.839844 234.296875 235.578125 214.726562 218.203125 " fill-opacity="1" fill-rule="nonzero"/><path fill="rgb(100%, 87.059021%, 34.899902%)" d="M 143.730469 267.566406 C 144.925781 265.597656 144.292969 263.042969 142.324219 261.847656 C 140.359375 260.664062 137.796875 261.289062 136.609375 263.257812 C 132.523438 270.011719 119.390625 288.617188 107.796875 293.5 C 105.679688 294.386719 104.683594 296.835938 105.574219 298.949219 C 106.242188 300.542969 107.789062 301.5 109.414062 301.5 C 109.953125 301.5 110.5 301.398438 111.03125 301.171875 C 127.464844 294.246094 143.082031 268.65625 143.730469 267.566406 " fill-opacity="1" fill-rule="nonzero"/><path fill="rgb(100%, 87.059021%, 34.899902%)" d="M 137.125 255.289062 C 138.429688 253.394531 137.949219 250.800781 136.058594 249.492188 C 134.167969 248.1875 131.574219 248.660156 130.273438 250.554688 C 130.121094 250.773438 114.902344 272.652344 100.359375 277.945312 C 98.203125 278.730469 97.078125 281.117188 97.867188 283.28125 C 98.488281 284.972656 100.082031 286.019531 101.78125 286.019531 C 102.253906 286.019531 102.730469 285.941406 103.199219 285.769531 C 120.214844 279.585938 136.441406 256.277344 137.125 255.289062 " fill-opacity="1" fill-rule="nonzero"/><path fill="rgb(100%, 87.059021%, 34.899902%)" d="M 126.113281 240.34375 C 127.34375 238.40625 126.765625 235.835938 124.828125 234.601562 C 122.882812 233.371094 120.308594 233.949219 119.082031 235.886719 C 118.957031 236.078125 106.398438 255.664062 91.890625 261.554688 C 89.757812 262.417969 88.734375 264.847656 89.601562 266.980469 C 90.25 268.59375 91.808594 269.578125 93.457031 269.578125 C 93.976562 269.578125 94.507812 269.476562 95.015625 269.269531 C 112.019531 262.371094 125.542969 241.242188 126.113281 240.34375 " fill-opacity="1" fill-rule="nonzero"/><path fill="rgb(100%, 87.059021%, 34.899902%)" d="M 93.207031 250.679688 L 94.792969 249.472656 C 100.824219 244.894531 108.328125 239.199219 111.664062 231.507812 C 113.929688 226.304688 115.605469 212.167969 113.410156 204.574219 C 109.164062 189.875 108.855469 153.433594 121.105469 137.996094 C 122.539062 136.195312 122.234375 133.570312 120.433594 132.148438 C 118.636719 130.714844 116.015625 131.007812 114.585938 132.820312 C 109.871094 138.757812 106.777344 146.855469 104.878906 155.628906 C 100.640625 163.5 85.972656 172.671875 81.550781 171.230469 C 79.359375 170.519531 77.015625 171.722656 76.308594 173.917969 C 75.601562 176.105469 76.804688 178.453125 78.996094 179.152344 C 80.050781 179.496094 81.199219 179.660156 82.40625 179.660156 C 88.605469 179.660156 96.484375 175.472656 102.792969 170.242188 C 102.695312 171.636719 102.621094 173.011719 102.5625 174.394531 C 100.300781 181.550781 90.183594 190.007812 81.449219 191.949219 C 79.207031 192.445312 77.789062 194.671875 78.289062 196.910156 C 78.722656 198.855469 80.4375 200.179688 82.347656 200.179688 C 82.644531 200.179688 82.957031 200.144531 83.253906 200.074219 C 90.207031 198.527344 97.34375 194.210938 102.679688 188.875 C 102.855469 191.628906 103.101562 194.25 103.425781 196.691406 C 102.992188 197.234375 102.679688 197.886719 102.566406 198.617188 C 100.386719 212.785156 88.132812 218.914062 82.355469 218.914062 C 80.054688 218.914062 78.191406 220.78125 78.191406 223.082031 C 78.191406 225.382812 80.054688 227.242188 82.355469 227.242188 C 89.769531 227.242188 100.03125 222.152344 106.113281 212.476562 C 106.265625 218.269531 105.25 225.390625 104.035156 228.1875 C 101.5625 233.878906 95.289062 238.636719 89.753906 242.839844 L 88.148438 244.058594 C 86.324219 245.460938 85.980469 248.070312 87.375 249.902344 C 88.195312 250.972656 89.429688 251.53125 90.683594 251.53125 C 91.5625 251.53125 92.453125 251.253906 93.207031 250.679688 " fill-opacity="1" fill-rule="nonzero"/><path fill="rgb(100%, 87.059021%, 34.899902%)" d="M 83.121094 146.96875 C 96.730469 146.96875 108.503906 132.148438 122.144531 115 C 126.832031 109.085938 131.691406 102.972656 136.796875 97.28125 C 150.457031 82.035156 165.953125 64.75 187.457031 62.75 C 215.347656 60.136719 230.238281 82.78125 234.128906 89.769531 C 235.25 91.78125 237.78125 92.511719 239.792969 91.386719 C 241.800781 90.269531 242.523438 87.730469 241.40625 85.726562 C 236.894531 77.609375 219.621094 51.390625 186.683594 54.457031 C 161.929688 56.761719 144.558594 76.148438 130.59375 91.726562 C 125.332031 97.597656 120.398438 103.808594 115.621094 109.816406 C 103.839844 124.640625 92.710938 138.640625 83.121094 138.640625 C 80.824219 138.640625 78.957031 140.507812 78.957031 142.8125 C 78.957031 145.109375 80.824219 146.96875 83.121094 146.96875 " fill-opacity="1" fill-rule="nonzero"/><path fill="rgb(100%, 87.059021%, 34.899902%)" d="M 185.023438 270.886719 C 187.726562 242.089844 178.414062 227.035156 170.191406 213.757812 C 162.148438 200.757812 155.199219 189.535156 158.175781 166.875 C 159.515625 156.648438 162.457031 147.40625 166.898438 139.394531 C 168.015625 137.386719 167.289062 134.851562 165.28125 133.734375 C 163.265625 132.617188 160.734375 133.34375 159.617188 135.351562 C 154.667969 144.285156 151.402344 154.523438 149.921875 165.785156 C 146.558594 191.394531 154.972656 204.992188 163.113281 218.136719 C 171.375 231.488281 179.175781 244.097656 176.730469 270.113281 C 174.070312 298.433594 137.871094 328.917969 137.511719 329.214844 C 135.738281 330.691406 135.507812 333.316406 136.976562 335.085938 C 137.796875 336.066406 138.980469 336.578125 140.175781 336.578125 C 141.113281 336.578125 142.054688 336.261719 142.835938 335.613281 C 144.4375 334.28125 182.039062 302.640625 185.023438 270.886719 " fill-opacity="1" fill-rule="nonzero"/><path fill="rgb(100%, 87.059021%, 34.899902%)" d="M 200.457031 227.433594 C 198.515625 226.203125 195.941406 226.773438 194.710938 228.714844 C 193.46875 230.648438 194.046875 233.226562 195.984375 234.460938 C 221.347656 250.621094 240.84375 283.847656 245.648438 319.113281 C 245.933594 321.199219 247.71875 322.714844 249.769531 322.714844 C 249.953125 322.714844 250.144531 322.699219 250.332031 322.671875 C 252.617188 322.359375 254.207031 320.265625 253.898438 317.984375 C 248.773438 280.394531 227.796875 244.851562 200.457031 227.433594 " fill-opacity="1" fill-rule="nonzero"/><path fill="rgb(100%, 87.059021%, 34.899902%)" d="M 196.15625 240.964844 C 194.96875 240.980469 193.839844 241.496094 193.0625 242.394531 C 192.277344 243.289062 191.917969 244.480469 192.070312 245.65625 C 193.824219 259.300781 183.453125 306.691406 149.714844 332.59375 C 147.886719 333.996094 147.550781 336.609375 148.949219 338.433594 C 149.769531 339.5 151.003906 340.058594 152.25 340.058594 C 153.132812 340.058594 154.027344 339.78125 154.785156 339.203125 C 186.613281 314.765625 198.894531 273.578125 200.394531 252.808594 C 210.746094 263.085938 230.675781 293.964844 227.144531 333.984375 C 226.949219 336.273438 228.640625 338.296875 230.929688 338.5 C 233.214844 338.710938 235.242188 337.003906 235.441406 334.710938 C 238.777344 296.878906 222.695312 264.785156 207.917969 248.808594 C 200.621094 240.917969 197.261719 240.945312 196.15625 240.964844 " fill-opacity="1" fill-rule="nonzero"/><path fill="rgb(100%, 87.059021%, 34.899902%)" d="M 208.15625 271.585938 C 207.988281 269.292969 206.015625 267.597656 203.699219 267.734375 C 201.40625 267.90625 199.6875 269.898438 199.84375 272.191406 C 201.554688 295.597656 184.019531 329.300781 165.105469 338.96875 C 163.0625 340.019531 162.25 342.523438 163.296875 344.570312 C 164.027344 346.015625 165.492188 346.84375 167.007812 346.84375 C 167.644531 346.84375 168.285156 346.699219 168.894531 346.386719 C 190.644531 335.265625 210.09375 298.214844 208.15625 271.585938 " fill-opacity="1" fill-rule="nonzero"/><g clip-path="url(#clip-1)"><path fill="rgb(100%, 87.059021%, 34.899902%)" d="M 215.128906 293.203125 C 212.855469 292.941406 210.773438 294.566406 210.511719 296.847656 C 208.734375 311.964844 196.953125 336.507812 188.929688 345.246094 C 187.367188 346.941406 187.476562 349.574219 189.171875 351.132812 C 189.972656 351.867188 190.980469 352.230469 191.984375 352.230469 C 193.113281 352.230469 194.234375 351.777344 195.054688 350.882812 C 204.078125 341.058594 216.796875 314.648438 218.777344 297.824219 C 219.046875 295.539062 217.410156 293.46875 215.128906 293.203125 " fill-opacity="1" fill-rule="nonzero"/></g><path fill="rgb(100%, 87.059021%, 34.899902%)" d="M 178.539062 136.269531 C 172.335938 143.53125 164.621094 152.558594 159.628906 169.503906 C 158.976562 171.710938 160.242188 174.027344 162.445312 174.675781 C 162.832031 174.789062 163.238281 174.847656 163.625 174.847656 C 165.417969 174.847656 167.078125 173.667969 167.613281 171.855469 C 172.097656 156.621094 178.882812 148.6875 184.863281 141.679688 C 187.578125 138.5 190.148438 135.5 192.097656 132.199219 C 199.121094 120.269531 196.855469 111.484375 191.492188 108.066406 C 185.707031 104.390625 174.921875 105.960938 163.566406 122.527344 C 162.269531 124.421875 162.75 127.015625 164.644531 128.308594 C 166.539062 129.613281 169.125 129.128906 170.4375 127.230469 C 178.539062 115.410156 185.214844 113.953125 187.015625 115.097656 C 188.625 116.121094 189.074219 120.925781 184.921875 127.96875 C 183.347656 130.644531 181.117188 133.25 178.539062 136.269531 " fill-opacity="1" fill-rule="nonzero"/><path fill="rgb(100%, 87.059021%, 34.899902%)" d="M 221.109375 304.792969 C 218.808594 304.925781 217.050781 306.890625 217.191406 309.1875 C 217.652344 317.179688 215.828125 329.121094 212.308594 341.132812 C 211.664062 343.34375 212.929688 345.65625 215.136719 346.300781 C 215.523438 346.414062 215.917969 346.472656 216.304688 346.472656 C 218.109375 346.472656 219.769531 345.289062 220.300781 343.476562 C 224.074219 330.59375 226.011719 317.597656 225.5 308.707031 C 225.367188 306.410156 223.375 304.675781 221.109375 304.792969 " fill-opacity="1" fill-rule="nonzero"/><path fill="rgb(100%, 87.059021%, 34.899902%)" d="M 250.574219 228.160156 C 243.613281 220.453125 236.082031 214.621094 229.4375 209.480469 C 219.113281 201.496094 211.648438 195.730469 211.648438 187.6875 C 211.648438 178.796875 217.632812 173.445312 225.914062 166.035156 C 228.96875 163.300781 232.195312 160.390625 235.386719 157.070312 C 235.902344 157.988281 236.75 158.710938 237.839844 159.03125 C 242.703125 160.460938 248.953125 161.300781 255.609375 161.300781 C 269.808594 161.300781 285.859375 157.511719 294.230469 147.738281 C 295.726562 145.992188 295.523438 143.363281 293.78125 141.871094 C 292.03125 140.375 289.402344 140.574219 287.910156 142.324219 C 279.203125 152.480469 255.472656 155.367188 240.582031 151.144531 C 242.640625 148.554688 244.625 145.746094 246.464844 142.578125 C 257.496094 123.511719 248.980469 100.125 248.605469 99.136719 C 247.808594 96.984375 245.40625 95.890625 243.25 96.691406 C 241.097656 97.5 240.007812 99.894531 240.808594 102.046875 C 240.886719 102.253906 248.34375 122.707031 239.253906 138.40625 C 233.832031 147.78125 226.675781 154.183594 220.363281 159.828125 C 211.601562 167.664062 203.324219 175.074219 203.324219 187.6875 C 203.324219 199.808594 213.058594 207.347656 224.34375 216.070312 C 230.710938 221 237.929688 226.582031 244.390625 233.742188 C 261.394531 252.574219 269.035156 285.542969 269.109375 285.875 C 269.550781 287.808594 271.265625 289.117188 273.167969 289.117188 C 273.46875 289.117188 273.78125 289.082031 274.09375 289.015625 C 276.332031 288.503906 277.734375 286.269531 277.230469 284.03125 C 276.902344 282.59375 269.050781 248.628906 250.574219 228.160156 " fill-opacity="1" fill-rule="nonzero"/><path fill="rgb(100%, 87.059021%, 34.899902%)" d="M 89.722656 127.152344 C 96.578125 125.226562 103.660156 116.078125 113.46875 103.417969 C 129.683594 82.472656 151.898438 53.78125 182.203125 47.414062 C 200.109375 43.636719 223.292969 51.328125 237.347656 65.679688 C 250.742188 79.363281 259.378906 104.722656 258.34375 127.351562 C 258.234375 129.648438 260.015625 131.59375 262.3125 131.699219 L 262.503906 131.707031 C 264.71875 131.707031 266.558594 129.964844 266.660156 127.730469 C 267.808594 102.578125 258.425781 75.300781 243.300781 59.851562 C 227.398438 43.605469 200.980469 34.949219 180.484375 39.257812 C 147.195312 46.269531 123.894531 76.347656 106.878906 98.320312 C 99.0625 108.417969 91.679688 117.953125 87.472656 119.132812 C 85.257812 119.753906 83.972656 122.058594 84.585938 124.265625 C 85.207031 126.480469 87.507812 127.777344 89.722656 127.152344 " fill-opacity="1" fill-rule="nonzero"/><g clip-path="url(#clip-2)"><path fill="rgb(100%, 87.059021%, 34.899902%)" d="M 297.992188 199.894531 C 296.492188 198.15625 293.859375 197.960938 292.121094 199.460938 C 283.328125 207.0625 255.40625 210.933594 243.199219 209.238281 C 240.914062 208.917969 238.816406 210.515625 238.507812 212.792969 C 238.183594 215.066406 239.777344 217.167969 242.054688 217.488281 C 244.371094 217.8125 247.105469 217.96875 250.117188 217.96875 C 259.023438 217.96875 270.308594 216.570312 280.054688 213.867188 C 278.988281 215.253906 278.855469 217.214844 279.886719 218.746094 C 282.25 222.21875 285.566406 227.867188 287.140625 232.335938 C 287.742188 234.042969 289.351562 235.109375 291.066406 235.109375 C 291.523438 235.109375 291.992188 235.039062 292.445312 234.878906 C 294.621094 234.113281 295.753906 231.730469 294.996094 229.566406 C 292.621094 222.832031 287.734375 215.46875 286.78125 214.0625 C 286.238281 213.269531 285.46875 212.734375 284.621094 212.464844 C 289.90625 210.65625 294.488281 208.429688 297.5625 205.769531 C 299.304688 204.261719 299.496094 201.632812 297.992188 199.894531 " fill-opacity="1" fill-rule="nonzero"/></g><path fill="rgb(100%, 87.059021%, 34.899902%)" d="M 220.753906 199.789062 C 229.609375 203.890625 240.871094 205.835938 252.214844 205.835938 C 269.257812 205.835938 286.488281 201.429688 295.980469 193.3125 C 297.722656 191.820312 297.929688 189.191406 296.433594 187.441406 C 294.941406 185.691406 292.3125 185.488281 290.5625 186.984375 C 277.070312 198.53125 243.597656 201.179688 224.25 192.234375 C 222.164062 191.269531 219.691406 192.175781 218.726562 194.261719 C 217.765625 196.351562 218.671875 198.828125 220.753906 199.789062 " fill-opacity="1" fill-rule="nonzero"/><path fill="rgb(100%, 87.059021%, 34.899902%)" d="M 290.351562 156.496094 C 279.746094 166.980469 250.667969 169.902344 232.734375 165.429688 C 230.511719 164.878906 228.246094 166.234375 227.6875 168.464844 C 227.128906 170.691406 228.492188 172.953125 230.722656 173.507812 C 236.378906 174.921875 243.636719 175.734375 251.363281 175.734375 C 267.851562 175.734375 286.488281 172.023438 296.203125 162.425781 C 297.832031 160.808594 297.855469 158.171875 296.238281 156.53125 C 294.621094 154.902344 291.984375 154.886719 290.351562 156.496094 " fill-opacity="1" fill-rule="nonzero"/><path fill="rgb(100%, 87.059021%, 34.899902%)" d="M 296.648438 173.953125 C 295.300781 172.09375 292.699219 171.675781 290.835938 173.027344 C 289.210938 174.199219 279.941406 178.925781 273.460938 180.695312 C 271.234375 181.304688 269.933594 183.597656 270.539062 185.816406 C 271.046875 187.664062 272.722656 188.882812 274.550781 188.882812 C 274.917969 188.882812 275.285156 188.832031 275.648438 188.730469 C 282.898438 186.75 292.996094 181.738281 295.710938 179.769531 C 297.578125 178.425781 297.992188 175.824219 296.648438 173.953125 " fill-opacity="1" fill-rule="nonzero"/><path fill="rgb(100%, 87.059021%, 34.899902%)" d="M 288.625 132.03125 C 286.070312 133.875 268.84375 142.578125 254.09375 136.769531 C 251.957031 135.929688 249.539062 136.980469 248.699219 139.113281 C 247.851562 141.253906 248.90625 143.675781 251.042969 144.515625 C 255.726562 146.363281 260.519531 147.082031 265.132812 147.082031 C 278.613281 147.082031 290.539062 140.929688 293.511719 138.777344 C 295.367188 137.429688 295.785156 134.832031 294.4375 132.964844 C 293.089844 131.105469 290.492188 130.683594 288.625 132.03125 " fill-opacity="1" fill-rule="nonzero"/><path fill="rgb(100%, 87.059021%, 34.899902%)" d="M 221.789062 185.640625 C 222.660156 185.789062 241.289062 189.007812 255.300781 189.007812 C 256.902344 189.007812 258.441406 188.964844 259.894531 188.871094 C 262.1875 188.722656 263.925781 186.746094 263.777344 184.449219 C 263.632812 182.15625 261.664062 180.441406 259.359375 180.558594 C 246.21875 181.414062 223.449219 177.472656 223.222656 177.433594 C 220.953125 177.042969 218.796875 178.550781 218.398438 180.824219 C 218.003906 183.089844 219.527344 185.242188 221.789062 185.640625 " fill-opacity="1" fill-rule="nonzero"/><path fill="rgb(100%, 87.059021%, 34.899902%)" d="M 257.058594 219.796875 C 255.242188 221.21875 254.933594 223.835938 256.351562 225.648438 C 262.285156 233.238281 276.082031 252.769531 275.78125 270.097656 C 275.742188 272.398438 277.574219 274.292969 279.875 274.335938 L 279.941406 274.335938 C 282.214844 274.335938 284.070312 272.523438 284.109375 270.246094 C 284.441406 250.972656 270.964844 230.8125 262.898438 220.515625 C 261.488281 218.699219 258.867188 218.382812 257.058594 219.796875 " fill-opacity="1" fill-rule="nonzero"/><path fill="rgb(100%, 87.059021%, 34.899902%)" d="M 278.335938 219.238281 C 277.003906 217.359375 274.414062 216.921875 272.53125 218.253906 C 270.65625 219.585938 270.21875 222.183594 271.550781 224.0625 C 275.242188 229.253906 280.035156 239.59375 282.957031 248.652344 C 283.523438 250.410156 285.15625 251.53125 286.921875 251.53125 C 287.335938 251.53125 287.769531 251.464844 288.195312 251.332031 C 290.382812 250.628906 291.582031 248.277344 290.878906 246.089844 C 287.679688 236.175781 282.523438 225.128906 278.335938 219.238281 " fill-opacity="1" fill-rule="nonzero"/><path fill="rgb(100%, 87.059021%, 34.899902%)" d="M 282.757812 119.144531 C 282.757812 121.441406 284.621094 123.304688 286.921875 123.304688 C 289.21875 123.304688 291.082031 121.441406 291.082031 119.144531 C 291.082031 102.957031 284.671875 83.050781 278.472656 73.144531 C 277.253906 71.203125 274.683594 70.613281 272.738281 71.828125 C 270.785156 73.050781 270.199219 75.625 271.417969 77.574219 C 276.894531 86.316406 282.757812 105.105469 282.757812 119.144531 " fill-opacity="1" fill-rule="nonzero"/></svg>